<mxfile host="app.diagrams.net" agent="Mozilla/5.0 (Windows NT 10.0; Win64; x64) AppleWebKit/537.36 (KHTML, like Gecko) Chrome/130.0.0.0 Safari/537.36" version="24.8.4">
  <diagram name="Page-1" id="x2cNiG-hF5nDTt7agm1x">
    <mxGraphModel dx="1034" dy="446" grid="1" gridSize="10" guides="1" tooltips="1" connect="1" arrows="1" fold="1" page="1" pageScale="1" pageWidth="827" pageHeight="1169" math="0" shadow="0">
      <root>
        <mxCell id="0" />
        <mxCell id="1" parent="0" />
        <mxCell id="m5Urqq9dgJi95oUzPIEq-23" value="" style="edgeStyle=orthogonalEdgeStyle;rounded=0;orthogonalLoop=1;jettySize=auto;html=1;" edge="1" parent="1">
          <mxGeometry relative="1" as="geometry">
            <mxPoint x="400" y="30" as="sourcePoint" />
            <mxPoint x="399" y="102" as="targetPoint" />
            <Array as="points">
              <mxPoint x="400" y="70" />
              <mxPoint x="399" y="70" />
            </Array>
          </mxGeometry>
        </mxCell>
        <mxCell id="m5Urqq9dgJi95oUzPIEq-24" value="Start" style="edgeLabel;html=1;align=center;verticalAlign=middle;resizable=0;points=[];" vertex="1" connectable="0" parent="m5Urqq9dgJi95oUzPIEq-23">
          <mxGeometry x="-0.491" y="-1" relative="1" as="geometry">
            <mxPoint as="offset" />
          </mxGeometry>
        </mxCell>
        <mxCell id="m5Urqq9dgJi95oUzPIEq-1" value="" style="ellipse;html=1;shape=startState;fillColor=#000000;strokeColor=#1A1A1A;" vertex="1" parent="1">
          <mxGeometry x="385" y="4" width="30" height="30" as="geometry" />
        </mxCell>
        <mxCell id="m5Urqq9dgJi95oUzPIEq-5" value="" style="edgeStyle=orthogonalEdgeStyle;rounded=0;orthogonalLoop=1;jettySize=auto;html=1;" edge="1" parent="1" source="m5Urqq9dgJi95oUzPIEq-3" target="m5Urqq9dgJi95oUzPIEq-4">
          <mxGeometry relative="1" as="geometry" />
        </mxCell>
        <mxCell id="m5Urqq9dgJi95oUzPIEq-27" value="Timer (1m)" style="edgeLabel;html=1;align=center;verticalAlign=middle;resizable=0;points=[];" vertex="1" connectable="0" parent="m5Urqq9dgJi95oUzPIEq-5">
          <mxGeometry x="0.1064" relative="1" as="geometry">
            <mxPoint as="offset" />
          </mxGeometry>
        </mxCell>
        <mxCell id="m5Urqq9dgJi95oUzPIEq-3" value="GreenNS" style="strokeWidth=2;html=1;shape=mxgraph.flowchart.terminator;whiteSpace=wrap;" vertex="1" parent="1">
          <mxGeometry x="350" y="104" width="100" height="60" as="geometry" />
        </mxCell>
        <mxCell id="m5Urqq9dgJi95oUzPIEq-7" value="" style="edgeStyle=orthogonalEdgeStyle;rounded=0;orthogonalLoop=1;jettySize=auto;html=1;" edge="1" parent="1" source="m5Urqq9dgJi95oUzPIEq-4" target="m5Urqq9dgJi95oUzPIEq-6">
          <mxGeometry relative="1" as="geometry" />
        </mxCell>
        <mxCell id="m5Urqq9dgJi95oUzPIEq-28" value="Timer (10s)" style="edgeLabel;html=1;align=center;verticalAlign=middle;resizable=0;points=[];" vertex="1" connectable="0" parent="m5Urqq9dgJi95oUzPIEq-7">
          <mxGeometry x="-0.1917" y="-4" relative="1" as="geometry">
            <mxPoint as="offset" />
          </mxGeometry>
        </mxCell>
        <mxCell id="m5Urqq9dgJi95oUzPIEq-4" value="YelllowNS" style="strokeWidth=2;html=1;shape=mxgraph.flowchart.terminator;whiteSpace=wrap;" vertex="1" parent="1">
          <mxGeometry x="109" y="53" width="100" height="60" as="geometry" />
        </mxCell>
        <mxCell id="m5Urqq9dgJi95oUzPIEq-9" value="" style="edgeStyle=orthogonalEdgeStyle;rounded=0;orthogonalLoop=1;jettySize=auto;html=1;" edge="1" parent="1" source="m5Urqq9dgJi95oUzPIEq-6" target="m5Urqq9dgJi95oUzPIEq-8">
          <mxGeometry relative="1" as="geometry" />
        </mxCell>
        <mxCell id="m5Urqq9dgJi95oUzPIEq-34" value="&amp;nbsp; &amp;nbsp; &amp;nbsp; &amp;nbsp; &amp;nbsp; &amp;nbsp; &amp;nbsp; &amp;nbsp; &amp;nbsp; &amp;nbsp; &amp;nbsp; &amp;nbsp; &amp;nbsp; &amp;nbsp; &amp;nbsp; &amp;nbsp; &amp;nbsp; &amp;nbsp; &amp;nbsp; &amp;nbsp; &amp;nbsp; &amp;nbsp;Pedestrian button pressed&amp;nbsp;" style="edgeLabel;html=1;align=center;verticalAlign=middle;resizable=0;points=[];" vertex="1" connectable="0" parent="m5Urqq9dgJi95oUzPIEq-9">
          <mxGeometry x="-0.1167" y="-3" relative="1" as="geometry">
            <mxPoint x="3" as="offset" />
          </mxGeometry>
        </mxCell>
        <mxCell id="m5Urqq9dgJi95oUzPIEq-14" value="" style="edgeStyle=orthogonalEdgeStyle;rounded=0;orthogonalLoop=1;jettySize=auto;html=1;" edge="1" parent="1" source="m5Urqq9dgJi95oUzPIEq-6" target="m5Urqq9dgJi95oUzPIEq-13">
          <mxGeometry relative="1" as="geometry" />
        </mxCell>
        <mxCell id="m5Urqq9dgJi95oUzPIEq-36" value="Timer(1m)" style="edgeLabel;html=1;align=center;verticalAlign=middle;resizable=0;points=[];" vertex="1" connectable="0" parent="m5Urqq9dgJi95oUzPIEq-14">
          <mxGeometry x="-0.225" y="-2" relative="1" as="geometry">
            <mxPoint as="offset" />
          </mxGeometry>
        </mxCell>
        <mxCell id="m5Urqq9dgJi95oUzPIEq-6" value="RedNS" style="strokeWidth=2;html=1;shape=mxgraph.flowchart.terminator;whiteSpace=wrap;" vertex="1" parent="1">
          <mxGeometry x="109" y="193" width="100" height="60" as="geometry" />
        </mxCell>
        <mxCell id="m5Urqq9dgJi95oUzPIEq-8" value="PedrestrisnCrossing" style="strokeWidth=2;html=1;shape=mxgraph.flowchart.terminator;whiteSpace=wrap;" vertex="1" parent="1">
          <mxGeometry x="94" y="333" width="130" height="60" as="geometry" />
        </mxCell>
        <mxCell id="m5Urqq9dgJi95oUzPIEq-16" value="" style="edgeStyle=orthogonalEdgeStyle;rounded=0;orthogonalLoop=1;jettySize=auto;html=1;" edge="1" parent="1" source="m5Urqq9dgJi95oUzPIEq-13" target="m5Urqq9dgJi95oUzPIEq-15">
          <mxGeometry relative="1" as="geometry" />
        </mxCell>
        <mxCell id="m5Urqq9dgJi95oUzPIEq-37" value="Timer(1m)" style="edgeLabel;html=1;align=center;verticalAlign=middle;resizable=0;points=[];" vertex="1" connectable="0" parent="m5Urqq9dgJi95oUzPIEq-16">
          <mxGeometry x="0.0583" y="1" relative="1" as="geometry">
            <mxPoint as="offset" />
          </mxGeometry>
        </mxCell>
        <mxCell id="m5Urqq9dgJi95oUzPIEq-13" value="GreenEW" style="strokeWidth=2;html=1;shape=mxgraph.flowchart.terminator;whiteSpace=wrap;" vertex="1" parent="1">
          <mxGeometry x="289" y="193" width="100" height="60" as="geometry" />
        </mxCell>
        <mxCell id="m5Urqq9dgJi95oUzPIEq-18" value="" style="edgeStyle=orthogonalEdgeStyle;rounded=0;orthogonalLoop=1;jettySize=auto;html=1;" edge="1" parent="1" source="m5Urqq9dgJi95oUzPIEq-15" target="m5Urqq9dgJi95oUzPIEq-17">
          <mxGeometry relative="1" as="geometry" />
        </mxCell>
        <mxCell id="m5Urqq9dgJi95oUzPIEq-32" value="Timer(10s)" style="edgeLabel;html=1;align=center;verticalAlign=middle;resizable=0;points=[];" vertex="1" connectable="0" parent="m5Urqq9dgJi95oUzPIEq-18">
          <mxGeometry x="-0.1167" y="-1" relative="1" as="geometry">
            <mxPoint as="offset" />
          </mxGeometry>
        </mxCell>
        <mxCell id="m5Urqq9dgJi95oUzPIEq-15" value="YellowEW" style="strokeWidth=2;html=1;shape=mxgraph.flowchart.terminator;whiteSpace=wrap;" vertex="1" parent="1">
          <mxGeometry x="289" y="333" width="100" height="60" as="geometry" />
        </mxCell>
        <mxCell id="m5Urqq9dgJi95oUzPIEq-17" value="RedEW" style="strokeWidth=2;html=1;shape=mxgraph.flowchart.terminator;whiteSpace=wrap;" vertex="1" parent="1">
          <mxGeometry x="289" y="473" width="100" height="60" as="geometry" />
        </mxCell>
        <mxCell id="m5Urqq9dgJi95oUzPIEq-29" value="" style="edgeStyle=orthogonalEdgeStyle;rounded=0;orthogonalLoop=1;jettySize=auto;html=1;exitX=0.95;exitY=0.717;exitDx=0;exitDy=0;exitPerimeter=0;entryX=0.727;entryY=0.983;entryDx=0;entryDy=0;entryPerimeter=0;" edge="1" parent="1" target="m5Urqq9dgJi95oUzPIEq-3">
          <mxGeometry relative="1" as="geometry">
            <mxPoint x="389" y="499.02" as="sourcePoint" />
            <mxPoint x="500" y="162" as="targetPoint" />
            <Array as="points">
              <mxPoint x="389" y="503" />
              <mxPoint x="430" y="503" />
              <mxPoint x="430" y="180" />
              <mxPoint x="423" y="180" />
            </Array>
          </mxGeometry>
        </mxCell>
        <mxCell id="m5Urqq9dgJi95oUzPIEq-38" value="Timer(1m)" style="edgeLabel;html=1;align=center;verticalAlign=middle;resizable=0;points=[];" vertex="1" connectable="0" parent="m5Urqq9dgJi95oUzPIEq-29">
          <mxGeometry x="0.1299" relative="1" as="geometry">
            <mxPoint as="offset" />
          </mxGeometry>
        </mxCell>
        <mxCell id="m5Urqq9dgJi95oUzPIEq-30" value="" style="edgeStyle=orthogonalEdgeStyle;rounded=0;orthogonalLoop=1;jettySize=auto;html=1;" edge="1" parent="1">
          <mxGeometry relative="1" as="geometry">
            <mxPoint x="160" y="394" as="sourcePoint" />
            <mxPoint x="290" y="510" as="targetPoint" />
            <Array as="points">
              <mxPoint x="160" y="510" />
              <mxPoint x="290" y="510" />
            </Array>
          </mxGeometry>
        </mxCell>
        <mxCell id="m5Urqq9dgJi95oUzPIEq-31" value="Timer(40s)" style="edgeLabel;html=1;align=center;verticalAlign=middle;resizable=0;points=[];" vertex="1" connectable="0" parent="m5Urqq9dgJi95oUzPIEq-30">
          <mxGeometry x="-0.607" y="-1" relative="1" as="geometry">
            <mxPoint as="offset" />
          </mxGeometry>
        </mxCell>
        <mxCell id="m5Urqq9dgJi95oUzPIEq-33" value="" style="edgeStyle=orthogonalEdgeStyle;rounded=0;orthogonalLoop=1;jettySize=auto;html=1;entryX=0.263;entryY=0.994;entryDx=0;entryDy=0;entryPerimeter=0;exitX=0.328;exitY=0.061;exitDx=0;exitDy=0;exitPerimeter=0;" edge="1" parent="1">
          <mxGeometry relative="1" as="geometry">
            <mxPoint x="122.63999999999999" y="332.6600000000001" as="sourcePoint" />
            <mxPoint x="123.29999999999995" y="248.6400000000001" as="targetPoint" />
            <Array as="points">
              <mxPoint x="123" y="326" />
            </Array>
          </mxGeometry>
        </mxCell>
        <mxCell id="m5Urqq9dgJi95oUzPIEq-35" value="Timer(40s)&amp;nbsp; &amp;nbsp; &amp;nbsp; &amp;nbsp;" style="edgeLabel;html=1;align=center;verticalAlign=middle;resizable=0;points=[];" vertex="1" connectable="0" parent="m5Urqq9dgJi95oUzPIEq-33">
          <mxGeometry x="0.0787" y="1" relative="1" as="geometry">
            <mxPoint as="offset" />
          </mxGeometry>
        </mxCell>
        <mxCell id="m5Urqq9dgJi95oUzPIEq-40" value="&lt;h3&gt;&lt;br&gt;&lt;/h3&gt;" style="text;html=1;align=center;verticalAlign=middle;resizable=0;points=[];autosize=1;strokeColor=none;fillColor=none;" vertex="1" parent="1">
          <mxGeometry x="251" y="613" width="20" height="60" as="geometry" />
        </mxCell>
      </root>
    </mxGraphModel>
  </diagram>
</mxfile>
